<?xml version="1.0" encoding="UTF-8" standalone="no"?>
<svg
   xmlns:dc="http://purl.org/dc/elements/1.1/"
   xmlns:cc="http://creativecommons.org/ns#"
   xmlns:rdf="http://www.w3.org/1999/02/22-rdf-syntax-ns#"
   xmlns:svg="http://www.w3.org/2000/svg"
   xmlns="http://www.w3.org/2000/svg"
   xmlns:sodipodi="http://sodipodi.sourceforge.net/DTD/sodipodi-0.dtd"
   xmlns:inkscape="http://www.inkscape.org/namespaces/inkscape"
   height="33.840023"
   width="211.26277"
   inkscape:version="1.0 (4035a4fb49, 2020-05-01)"
   inkscape:export-ydpi="397.91309"
   inkscape:export-xdpi="397.91309"
   inkscape:export-filename="C:\Users\Dan\@populace\logo360.png"
   sodipodi:docname="cometx.svg"
   xml:space="preserve"
   viewBox="0 0 211.26276 33.840023"
   y="0px"
   x="0px"
   id="Layer_1"
   version="1.1"><metadata
   id="metadata50"><rdf:RDF><cc:Work
       rdf:about=""><dc:format>image/svg+xml</dc:format><dc:type
         rdf:resource="http://purl.org/dc/dcmitype/StillImage" /><dc:title></dc:title></cc:Work></rdf:RDF></metadata><defs
   id="defs48"><inkscape:path-effect
     only_selected="false"
     apply_with_weight="true"
     apply_no_weight="true"
     helper_size="0"
     steps="2"
     weight="33.333333"
     lpeversion="1"
     is_visible="true"
     id="path-effect972"
     effect="bspline" /><inkscape:path-effect
     only_selected="false"
     apply_with_weight="true"
     apply_no_weight="true"
     helper_size="0"
     steps="2"
     weight="33.333333"
     lpeversion="1"
     is_visible="true"
     id="path-effect964"
     effect="bspline" /><inkscape:path-effect
     only_selected="false"
     apply_with_weight="true"
     apply_no_weight="true"
     helper_size="0"
     steps="2"
     weight="33.333333"
     lpeversion="1"
     is_visible="true"
     id="path-effect960"
     effect="bspline" /><inkscape:path-effect
     only_selected="false"
     apply_with_weight="true"
     apply_no_weight="true"
     helper_size="0"
     steps="2"
     weight="33.333333"
     lpeversion="1"
     is_visible="true"
     id="path-effect952"
     effect="bspline" /><inkscape:path-effect
     only_selected="false"
     apply_with_weight="true"
     apply_no_weight="true"
     helper_size="0"
     steps="2"
     weight="33.333333"
     lpeversion="1"
     is_visible="true"
     id="path-effect948"
     effect="bspline" /><inkscape:path-effect
     only_selected="false"
     apply_with_weight="true"
     apply_no_weight="true"
     helper_size="0"
     steps="2"
     weight="33.333333"
     lpeversion="1"
     is_visible="true"
     id="path-effect940"
     effect="bspline" /><inkscape:path-effect
     only_selected="false"
     apply_with_weight="true"
     apply_no_weight="true"
     helper_size="0"
     steps="2"
     weight="33.333333"
     lpeversion="1"
     is_visible="true"
     id="path-effect936"
     effect="bspline" /><inkscape:path-effect
     only_selected="false"
     apply_with_weight="true"
     apply_no_weight="true"
     helper_size="0"
     steps="2"
     weight="33.333333"
     lpeversion="1"
     is_visible="true"
     id="path-effect928"
     effect="bspline" /><inkscape:path-effect
     only_selected="false"
     apply_with_weight="true"
     apply_no_weight="true"
     helper_size="0"
     steps="2"
     weight="33.333333"
     lpeversion="1"
     is_visible="true"
     id="path-effect924"
     effect="bspline" /><inkscape:path-effect
     effect="bspline"
     id="path-effect905"
     is_visible="true"
     lpeversion="1"
     weight="33.333333"
     steps="2"
     helper_size="0"
     apply_no_weight="true"
     apply_with_weight="true"
     only_selected="false" /><inkscape:path-effect
     only_selected="false"
     apply_with_weight="true"
     apply_no_weight="true"
     helper_size="0"
     steps="2"
     weight="33.333333"
     lpeversion="1"
     is_visible="true"
     id="path-effect886"
     effect="bspline" /><inkscape:path-effect
     effect="bspline"
     id="path-effect867"
     is_visible="true"
     lpeversion="1"
     weight="33.333333"
     steps="2"
     helper_size="0"
     apply_no_weight="true"
     apply_with_weight="true"
     only_selected="false" /><inkscape:path-effect
     only_selected="false"
     apply_with_weight="true"
     apply_no_weight="true"
     helper_size="0"
     steps="2"
     weight="33.333333"
     lpeversion="1"
     is_visible="true"
     id="path-effect848"
     effect="bspline" /><marker
     inkscape:isstock="true"
     style="overflow:visible"
     id="Arrow1Lstart"
     refX="0"
     refY="0"
     orient="auto"
     inkscape:stockid="Arrow1Lstart"><path
       transform="matrix(0.8,0,0,0.8,10,0)"
       style="fill-rule:evenodd;stroke:#000000;stroke-width:1pt"
       d="M 0,0 5,-5 -12.5,0 5,5 Z"
       id="path835" /></marker></defs><sodipodi:namedview
   fit-margin-bottom="3"
   fit-margin-right="3"
   fit-margin-left="3"
   fit-margin-top="3"
   showguides="true"
   inkscape:current-layer="Layer_1"
   inkscape:window-maximized="1"
   inkscape:window-y="-8"
   inkscape:window-x="-8"
   inkscape:cy="63.13054"
   inkscape:cx="118.88366"
   inkscape:zoom="2.8284271"
   showgrid="false"
   id="namedview46"
   inkscape:window-height="1017"
   inkscape:window-width="1920"
   inkscape:pageshadow="2"
   inkscape:pageopacity="0"
   guidetolerance="10"
   gridtolerance="10"
   objecttolerance="10"
   borderopacity="1"
   bordercolor="#666666"
   pagecolor="#ffffff"
   inkscape:document-rotation="0" />
<g
   style="font-size:38.6667px;line-height:1.25;font-family:'Fredoka One';-inkscape-font-specification:'Fredoka One';fill:#ef5350;fill-opacity:1"
   id="text883"
   aria-label="COMETX"><path
     id="path3286"
     style="font-style:normal;font-variant:normal;font-weight:normal;font-stretch:normal;font-size:38.6667px;font-family:'Lexend Peta';-inkscape-font-specification:'Lexend Peta';fill:#00000f;fill-opacity:1"
     d="m 29.370688,26.625353 q -1.005334,0.928 -2.745335,1.894668 -1.740002,0.966667 -3.98267,1.662668 -2.242669,0.657334 -4.794671,0.657334 -3.132002,0 -5.838671,-0.966668 Q 9.3026719,28.868021 7.2533369,27.050686 5.2426685,25.233351 4.1213343,22.681349 3,20.090681 3,16.920011 3,13.942676 4.160001,11.42934 5.3586686,8.9160047 7.4466704,7.0600032 9.5346721,5.2040017 12.241341,4.1986675 14.94801,3.1546667 17.964012,3.1546667 q 2.474669,0 4.756004,0.6960006 2.281335,0.6573338 4.060004,1.7013347 1.817334,1.0440008 2.900002,2.1653351 L 27.089353,11.08134 Q 25.194685,9.4186718 22.874683,8.374671 20.554681,7.2920034 17.654679,7.2920034 q -1.972002,0 -3.828003,0.6573339 -1.856002,0.6573339 -3.364003,1.9333349 -1.4693347,1.2373348 -2.3586688,3.0160028 -0.8506673,1.778668 -0.8506673,4.021336 0,3.248003 1.5466679,5.452005 1.5466682,2.165335 4.0600032,3.286669 2.552002,1.082668 5.413338,1.082668 2.088002,0 3.75067,-0.541334 1.662668,-0.580001 2.977335,-1.392001 1.314668,-0.812001 2.358669,-1.624002 z" /><path
     id="path3288"
     style="fill:#00000f;fill-opacity:0"
     d="m 68.636115,16.920011 q 0,2.938669 -1.160001,5.490672 -1.121335,2.513335 -3.209336,4.408003 -2.088002,1.894668 -4.910671,2.977336 -2.822669,1.044001 -6.225338,1.044001 -3.40267,0 -6.264006,-1.044001 -2.822669,-1.082668 -4.91067,-2.977336 -2.049335,-1.894668 -3.17067,-4.408003 -1.121334,-2.552003 -1.121334,-5.490672 0,-2.938669 1.121334,-5.452004 1.121335,-2.5520023 3.17067,-4.4466705 2.088001,-1.8946682 4.91067,-2.9386691 2.861336,-1.0826675 6.264006,-1.0826675 3.402669,0 6.225338,1.0826675 2.822669,1.0440009 4.910671,2.9386691 2.088001,1.8946682 3.209336,4.4466705 1.160001,2.513335 1.160001,5.452004 z m -4.253337,0 q 0,-2.822669 -1.469335,-5.02667 -1.430668,-2.242669 -3.98267,-3.51867 -2.513335,-1.3146678 -5.800004,-1.3146678 -3.325336,0 -5.877339,1.3146678 -2.513335,1.276001 -3.944003,3.51867 -1.392001,2.204001 -1.392001,5.02667 0,2.822669 1.392001,5.065338 1.430668,2.204002 3.944003,3.518669 2.552003,1.276001 5.877339,1.276001 3.286669,0 5.800004,-1.276001 2.552002,-1.314667 3.98267,-3.557336 1.469335,-2.242668 1.469335,-5.026671 z" /><path
     id="path3290"
     style="font-style:normal;font-variant:normal;font-weight:normal;font-stretch:normal;font-size:38.6667px;font-family:'Lexend Peta';-inkscape-font-specification:'Lexend Peta';fill:#00000f;fill-opacity:1"
     d="M 82.893251,3.3866669 93.758593,17.809345 104.62394,3.3866669 h 4.02133 V 30.453356 h -4.176 v -11.36801 q 0,-2.513335 0.0773,-4.756003 0.116,-2.242669 0.348,-4.4853375 L 94.995928,22.681349 H 92.443926 L 82.545251,9.8826722 q 0.270667,2.2040018 0.348,4.4466708 0.07733,2.242668 0.07733,4.756003 v 11.36801 H 78.794581 V 3.3866669 Z" /><path
     id="path3292"
     style="font-style:normal;font-variant:normal;font-weight:normal;font-stretch:normal;font-size:38.6667px;font-family:'Lexend Peta';-inkscape-font-specification:'Lexend Peta';fill:#00000f;fill-opacity:1"
     d="m 120.93524,3.3866669 h 20.95735 v 4.0213366 h -16.78134 v 7.1533395 h 14.65468 v 4.021336 h -14.65468 v 7.84934 h 16.78134 v 4.021337 h -20.95735 z" /><path
     id="path3294"
     style="font-style:normal;font-variant:normal;font-weight:normal;font-stretch:normal;font-size:38.6667px;font-family:'Lexend Peta';-inkscape-font-specification:'Lexend Peta';fill:#00000f;fill-opacity:1"
     d="M 159.83152,30.453356 V 7.4080035 h -9.51201 V 3.3866669 h 23.47069 v 4.0213366 h -9.78268 V 30.453356 Z" /><path
     id="path3296"
     style="font-style:normal;font-variant:normal;font-weight:normal;font-stretch:normal;font-size:38.6667px;font-family:'Lexend Peta';-inkscape-font-specification:'Lexend Peta';fill:#00000f;fill-opacity:1"
     d="M 179.72675,30.453356 191.17209,16.572011 179.92008,3.3866669 h 5.568 l 8.85468,10.7106751 8.19734,-10.7106751 h 5.336 l -11.09734,13.6106781 11.48401,13.456011 h -5.56801 l -9.00934,-10.865342 -8.66134,10.865342 z" /></g>

<g
   transform="translate(24.741002,-6.2024836)"
   id="g43">
	
	
</g>
<path
   sodipodi:nodetypes="ccccccccccccscssc"
   d="m 63.821406,3.9135113 -28.384405,1.9509763 35.105153,3.5105123 0.990109,1.7073721 -36.095262,2.586011 37.431126,2.685866 0.0011,1.143662 -37.432227,2.67373 36.104877,2.578918 -0.995326,1.721329 -35.109551,3.503649 28.384405,1.950975 c 2.833045,-1.188347 5.145713,-3.108375 6.725146,-5.454624 1.49552,-2.221595 2.333647,-4.825325 2.333679,-7.551871 -2e-5,-0.189209 -0.004,-0.377827 -0.01211,-0.565768 -0.07907,-1.850545 -0.543577,-3.635441 -1.335864,-5.271877 -1.511168,-3.12125 -4.2148,-5.7024073 -7.710857,-7.1688607 z"
   style="opacity:1;fill:#000000;fill-opacity:1;fill-rule:evenodd;stroke:none;stroke-width:0.156434;stroke-linecap:round;stroke-linejoin:round;stroke-miterlimit:4;stroke-dasharray:none;stroke-opacity:1"
   id="path1151" /></svg>
