<?xml version="1.0" encoding="UTF-8" standalone="no"?>
<svg
   xmlns:dc="http://purl.org/dc/elements/1.1/"
   xmlns:cc="http://creativecommons.org/ns#"
   xmlns:rdf="http://www.w3.org/1999/02/22-rdf-syntax-ns#"
   xmlns:svg="http://www.w3.org/2000/svg"
   xmlns="http://www.w3.org/2000/svg"
   xmlns:sodipodi="http://sodipodi.sourceforge.net/DTD/sodipodi-0.dtd"
   xmlns:inkscape="http://www.inkscape.org/namespaces/inkscape"
   inkscape:version="1.0 (4035a4fb49, 2020-05-01)"
   sodipodi:docname="cometx_optimized_new_flipped_left.svg"
   id="svg20"
   viewBox="0 0 211.26 33.84"
   version="1.1">
  <metadata
     id="metadata26">
    <rdf:RDF>
      <cc:Work
         rdf:about="">
        <dc:format>image/svg+xml</dc:format>
        <dc:type
           rdf:resource="http://purl.org/dc/dcmitype/StillImage" />
      </cc:Work>
    </rdf:RDF>
  </metadata>
  <defs
     id="defs24">
    <linearGradient
       id="linearGradient892"
       x1="34.153"
       x2="120.24"
       y1="16.972"
       y2="16.972"
       gradientTransform="matrix(0.65522391,0.39602947,-0.47362315,0.78360131,-23.385493,-115.88618)"
       gradientUnits="userSpaceOnUse">
      <stop
         stop-color="#2b0000"
         offset="0"
         id="stop930" />
      <stop
         stop-color="#2b0000"
         stop-opacity="0"
         offset="1"
         id="stop932" />
    </linearGradient>
  </defs>
  <sodipodi:namedview
     inkscape:current-layer="svg20"
     inkscape:window-maximized="1"
     inkscape:window-y="-8"
     inkscape:window-x="-8"
     inkscape:cy="36.8148"
     inkscape:cx="129.85171"
     inkscape:zoom="4"
     showgrid="false"
     id="namedview22"
     inkscape:window-height="1017"
     inkscape:window-width="1920"
     inkscape:pageshadow="2"
     inkscape:pageopacity="0"
     guidetolerance="10"
     gridtolerance="10"
     objecttolerance="10"
     borderopacity="1"
     bordercolor="#666666"
     pagecolor="#ffffff" />
  <g
     id="g16"
     fill="#ef5350">
    <path
       id="path2"
       fill="#00000f"
       d="m29.371 26.625q-1.0053 0.928-2.7453 1.8947-1.74 0.96667-3.9827 1.6627-2.2427 0.65733-4.7947 0.65733-3.132 0-5.8387-0.96667-2.7067-1.0053-4.756-2.8227-2.0107-1.8173-3.132-4.3693-1.1213-2.5907-1.1213-5.7613 0-2.9773 1.16-5.4907 1.1987-2.5133 3.2867-4.3693t4.7947-2.8613q2.7067-1.044 5.7227-1.044 2.4747 0 4.756 0.696 2.2813 0.65733 4.06 1.7013 1.8173 1.044 2.9 2.1653l-2.5907 3.364q-1.8947-1.6627-4.2147-2.7067-2.32-1.0827-5.22-1.0827-1.972 0-3.828 0.65733t-3.364 1.9333q-1.4693 1.2373-2.3587 3.016-0.85067 1.7787-0.85067 4.0213 0 3.248 1.5467 5.452 1.5467 2.1653 4.06 3.2867 2.552 1.0827 5.4133 1.0827 2.088 0 3.7507-0.54133 1.6627-0.58 2.9773-1.392 1.3147-0.812 2.3587-1.624z" />
    <path
       id="path4"
       fill-opacity="0"
       d="m68.636 16.92q0 2.9387-1.16 5.4907-1.1213 2.5133-3.2093 4.408t-4.9107 2.9773q-2.8227 1.044-6.2253 1.044-3.4027 0-6.264-1.044-2.8227-1.0827-4.9107-2.9773-2.0493-1.8947-3.1707-4.408-1.1213-2.552-1.1213-5.4907t1.1213-5.452q1.1213-2.552 3.1707-4.4467 2.088-1.8947 4.9107-2.9387 2.8613-1.0827 6.264-1.0827t6.2253 1.0827q2.8227 1.044 4.9107 2.9387t3.2093 4.4467q1.16 2.5133 1.16 5.452zm-4.2533 0q0-2.8227-1.4693-5.0267-1.4307-2.2427-3.9827-3.5187-2.5133-1.3147-5.8-1.3147-3.3253 0-5.8773 1.3147-2.5133 1.276-3.944 3.5187-1.392 2.204-1.392 5.0267t1.392 5.0653q1.4307 2.204 3.944 3.5187 2.552 1.276 5.8773 1.276 3.2867 0 5.8-1.276 2.552-1.3147 3.9827-3.5573 1.4693-2.2427 1.4693-5.0267z" />
    <g
       id="g14"
       fill="#00000f">
      <path
         id="path6"
         d="m82.893 3.3867 10.865 14.423 10.865-14.423h4.0213v27.067h-4.176v-11.368q0-2.5133 0.0773-4.756 0.116-2.2427 0.348-4.4853l-9.8986 12.837h-2.552l-9.8987-12.799q0.27067 2.204 0.348 4.4467t0.07733 4.756v11.368h-4.176v-27.067z" />
      <path
         id="path8"
         d="m120.94 3.3867h20.957v4.0213h-16.781v7.1533h14.655v4.0213h-14.655v7.8493h16.781v4.0213h-20.957z" />
      <path
         id="path10"
         d="m159.83 30.453v-23.045h-9.512v-4.0213h23.471v4.0213h-9.7827v23.045z" />
      <path
         id="path12"
         d="m179.73 30.453 11.445-13.881-11.252-13.185h5.568l8.8547 10.711 8.1973-10.711h5.336l-11.097 13.611 11.484 13.456h-5.568l-9.0093-10.865-8.6613 10.865z" />
    </g>
  </g>
  <g
     style="fill:#000000;fill-opacity:1"
     transform="rotate(-31.149543,58.624042,21.559234)"
     id="g890">
    <g
       style="fill:#000000;fill-opacity:1"
       transform="matrix(-0.46485617,-0.88538621,-0.88538621,0.46485617,89.891275,54.331952)"
       id="g894">
      <g
         style="fill:#000000;fill-opacity:1"
         transform="matrix(-0.50769857,-0.96698579,-0.96698579,0.50769857,91.195438,58.276919)"
         id="g898">
        <path
           sodipodi:nodetypes="ccccc"
           style="fill:#000000;fill-opacity:1"
           d="M 70.50545,22.057669 C 67.313921,27.338063 61.2509,29.65445 56.622884,27.36217 L 40.922763,4.1773312 68.748586,7.3004083 c 4.181265,3.0316017 4.948643,9.4766957 1.756864,14.7572607 z"
           fill="url(#linearGradient892)"
           fill-rule="evenodd"
           stroke-linecap="round"
           stroke-linejoin="round"
           stroke-width="1.3368"
           id="path953" />
      </g>
    </g>
  </g>
</svg>
