<svg version="1.1" viewBox="0 0 211.26 33.84" xmlns="http://www.w3.org/2000/svg">
 <g fill="#ef5350">
  <path d="m29.371 26.625q-1.0053 0.928-2.7453 1.8947-1.74 0.96667-3.9827 1.6627-2.2427 0.65733-4.7947 0.65733-3.132 0-5.8387-0.96667-2.7067-1.0053-4.756-2.8227-2.0107-1.8173-3.132-4.3693-1.1213-2.5907-1.1213-5.7613 0-2.9773 1.16-5.4907 1.1987-2.5133 3.2867-4.3693t4.7947-2.8613q2.7067-1.044 5.7227-1.044 2.4747 0 4.756 0.696 2.2813 0.65733 4.06 1.7013 1.8173 1.044 2.9 2.1653l-2.5907 3.364q-1.8947-1.6627-4.2147-2.7067-2.32-1.0827-5.22-1.0827-1.972 0-3.828 0.65733t-3.364 1.9333q-1.4693 1.2373-2.3587 3.016-0.85067 1.7787-0.85067 4.0213 0 3.248 1.5467 5.452 1.5467 2.1653 4.06 3.2867 2.552 1.0827 5.4133 1.0827 2.088 0 3.7507-0.54133 1.6627-0.58 2.9773-1.392 1.3147-0.812 2.3587-1.624z" fill="#00000f"/>
  <path d="m68.636 16.92q0 2.9387-1.16 5.4907-1.1213 2.5133-3.2093 4.408t-4.9107 2.9773q-2.8227 1.044-6.2253 1.044-3.4027 0-6.264-1.044-2.8227-1.0827-4.9107-2.9773-2.0493-1.8947-3.1707-4.408-1.1213-2.552-1.1213-5.4907t1.1213-5.452q1.1213-2.552 3.1707-4.4467 2.088-1.8947 4.9107-2.9387 2.8613-1.0827 6.264-1.0827t6.2253 1.0827q2.8227 1.044 4.9107 2.9387t3.2093 4.4467q1.16 2.5133 1.16 5.452zm-4.2533 0q0-2.8227-1.4693-5.0267-1.4307-2.2427-3.9827-3.5187-2.5133-1.3147-5.8-1.3147-3.3253 0-5.8773 1.3147-2.5133 1.276-3.944 3.5187-1.392 2.204-1.392 5.0267t1.392 5.0653q1.4307 2.204 3.944 3.5187 2.552 1.276 5.8773 1.276 3.2867 0 5.8-1.276 2.552-1.3147 3.9827-3.5573 1.4693-2.2427 1.4693-5.0267z" fill-opacity="0"/>
  <g fill="#00000f">
   <path d="m82.893 3.3867 10.865 14.423 10.865-14.423h4.0213v27.067h-4.176v-11.368q0-2.5133 0.0773-4.756 0.116-2.2427 0.348-4.4853l-9.8986 12.837h-2.552l-9.8987-12.799q0.27067 2.204 0.348 4.4467t0.07733 4.756v11.368h-4.176v-27.067z"/>
   <path d="m120.94 3.3867h20.957v4.0213h-16.781v7.1533h14.655v4.0213h-14.655v7.8493h16.781v4.0213h-20.957z"/>
   <path d="m159.83 30.453v-23.045h-9.512v-4.0213h23.471v4.0213h-9.7827v23.045z"/>
   <path d="m179.73 30.453 11.445-13.881-11.252-13.185h5.568l8.8547 10.711 8.1973-10.711h5.336l-11.097 13.611 11.484 13.456h-5.568l-9.0093-10.865-8.6613 10.865z"/>
  </g>
 </g>
 <path d="m57.15 4.7395-20.854 23.867 30.383-20.343 5.67e-4 1.81e-4 -30.384 20.343 34.031-15.59-34.031 15.59 35.064-7.7593-35.064 7.7593 31.221 0.0015c2.0807-2.2603 3.8505-5.1879 4.3092-7.9787 0.43433-2.6426 0.11215-5.3589-1.0234-7.8378-0.07883-0.17201 0.07686 0.17811-0.0088 0.01064-0.84261-1.6494-2.2466-3.5988-3.6485-4.7566-2.6738-2.2082-6.2067-3.4285-9.9959-3.3057z" fill-rule="evenodd"/>
</svg>
