<?xml version="1.0" encoding="UTF-8" standalone="no"?>
<svg
   xmlns:dc="http://purl.org/dc/elements/1.1/"
   xmlns:cc="http://creativecommons.org/ns#"
   xmlns:rdf="http://www.w3.org/1999/02/22-rdf-syntax-ns#"
   xmlns:svg="http://www.w3.org/2000/svg"
   xmlns="http://www.w3.org/2000/svg"
   xmlns:sodipodi="http://sodipodi.sourceforge.net/DTD/sodipodi-0.dtd"
   xmlns:inkscape="http://www.inkscape.org/namespaces/inkscape"
   height="33.000023"
   width="144.75523"
   inkscape:version="1.0 (4035a4fb49, 2020-05-01)"
   inkscape:export-ydpi="397.91309"
   inkscape:export-xdpi="397.91309"
   inkscape:export-filename="C:\Users\Dan\@populace\logo360.png"
   sodipodi:docname="CometLogoSvg.svg"
   xml:space="preserve"
   viewBox="0 0 144.75523 33.000023"
   y="0px"
   x="0px"
   id="Layer_1"
   version="1.1"><metadata
   id="metadata50"><rdf:RDF><cc:Work
       rdf:about=""><dc:format>image/svg+xml</dc:format><dc:type
         rdf:resource="http://purl.org/dc/dcmitype/StillImage" /><dc:title /></cc:Work></rdf:RDF></metadata><defs
   id="defs48" /><sodipodi:namedview
   fit-margin-bottom="2"
   fit-margin-right="2"
   fit-margin-left="2"
   fit-margin-top="2"
   showguides="true"
   inkscape:current-layer="text883"
   inkscape:window-maximized="1"
   inkscape:window-y="-8"
   inkscape:window-x="-8"
   inkscape:cy="41.525842"
   inkscape:cx="112.04745"
   inkscape:zoom="3.7565048"
   showgrid="false"
   id="namedview46"
   inkscape:window-height="1017"
   inkscape:window-width="1920"
   inkscape:pageshadow="2"
   inkscape:pageopacity="1"
   guidetolerance="10"
   gridtolerance="10"
   objecttolerance="10"
   borderopacity="1"
   bordercolor="#666666"
   pagecolor="#202124"
   inkscape:document-rotation="0" />
<g
   transform="rotate(19,50.837213,97.373321)"
   id="g35">
	<path
   d="M 38.951172,1 23,12 27,5 7.3457031,16.046875 l -0.7402343,0.417969 0.017578,0.01953 c -3.405,2.168 -5.67187502,5.966734 -5.67187502,10.302734 0,6.744 5.47079692,12.212891 12.21679722,12.212891 4.047,0 7.623703,-1.977766 9.845703,-5.009766 l 0.130859,-0.173828 C 23.550531,33.241406 35,16 35,16 l -7,3 z"
   style="fill:#ff9800;fill-opacity:1"
   id="path31" />
	
</g>
<path
   id="path37"
   d="m 42.184667,24.202559 0.02927,-0.01742 7.46264,-4.386378 -3.336782,-0.598984 -2.155493,-0.386835 1.704838,-1.375921 7.657432,-6.180718 -8.97136,1.973743 -2.672046,0.588108 1.662723,-2.172005 1.989501,-2.5988715 -8.892747,2.5962525 -0.03996,0.01162 -0.04088,0.0081 c -0.404974,0.08266 -0.788094,0.193991 -1.139842,0.330934 l -0.06985,0.02777 -0.07321,0.01604 c -0.192706,0.04364 -0.256323,0.08096 -0.25919,0.08314 l -0.109844,0.107072 -0.101268,0.03916 c -1.644707,0.826568 -2.877724,2.23592 -3.47449,3.969056 -1.256693,3.649701 0.689951,7.640914 4.339653,8.897607 1.843762,0.634858 3.81486,0.479099 5.550611,-0.439863 l 0.139882,-0.07452 0.15617,-0.02661 0.280121,-0.153145 c 0.121854,-0.07438 0.228813,-0.145429 0.335151,-0.217749 z"
   style="fill:#ffe0b2;fill-opacity:1" />
<g
   transform="translate(26.873005,-5.8401025)"
   id="g43">
	
	
</g>
<g
   aria-label="C   MET"
   id="text883"
   style="font-size:38.6667px;line-height:1.25;font-family:'Fredoka One';-inkscape-font-specification:'Fredoka One';fill:#ef5350;fill-opacity:1"><path
     d="M 16.771484,2 C 14.219482,2 11.680521,2.6958895 9.1542969,4.0878906 7.8138513,4.809669 6.6135304,5.7122543 5.5566406,6.7949219 4.5255287,7.8518116 3.6760822,9.2056892 3.0058594,10.855469 2.3356366,12.47947 2,14.295973 2,16.306641 c 0,2.010668 0.3356366,3.88031 1.0058594,5.607421 0.6960006,1.701336 1.5720165,3.106398 2.6289062,4.214844 1.0568898,1.082668 2.241973,2.009869 3.5566406,2.783203 1.3404458,0.747556 2.6298528,1.287936 3.8671878,1.623047 C 14.321706,30.84449 15.559928,31 16.771484,31 c 1.237334,0 2.513457,-0.206695 3.828125,-0.619141 1.314668,-0.412444 2.177399,-0.746128 2.589844,-1.003906 0.438223,-0.257778 0.889516,-0.528945 1.353516,-0.8125 0.464,-0.283556 0.864107,-0.605907 1.199219,-0.966797 0.360889,-0.360889 0.541015,-0.812182 0.541015,-1.353515 0,-0.541334 -0.28445,-1.263793 -0.851562,-2.166016 -0.928001,-1.443557 -1.790733,-2.164062 -2.589844,-2.164063 -0.360889,0 -0.980977,0.257882 -1.857422,0.773438 l -0.695313,0.501953 c -0.309332,0.206223 -0.825097,0.412918 -1.546874,0.619141 -0.696001,0.206222 -1.443076,0.308594 -2.242188,0.308594 -1.701335,-2e-6 -3.33771,-0.566949 -4.910156,-1.701172 -0.799112,-0.59289 -1.4571,-1.404435 -1.9726565,-2.435547 C 9.1016316,18.949357 8.84375,17.78889 8.84375,16.5 c 0,-1.314668 0.2578816,-2.488419 0.7734375,-3.519531 C 10.132744,11.949357 10.777447,11.151096 11.550781,10.583984 13.174783,9.4239836 14.824443,8.84375 16.5,8.84375 c 1.804446,0 3.247411,0.4380081 4.330078,1.314453 0.850667,0.567111 1.508656,0.851563 1.972656,0.851563 0.799112,0 1.701697,-0.69589 2.707032,-2.087891 0.541333,-0.7475561 0.8125,-1.4567303 0.8125,-2.1269531 0,-0.6960006 -0.335637,-1.314135 -1.00586,-1.8554688 C 25.058628,4.7590085 24.696422,4.5257433 24.232422,4.2421875 L 23.304688,3.7011719 C 22.660242,3.3145049 21.706471,2.9409673 20.443359,2.5800781 19.206025,2.1934111 17.983041,2 16.771484,2 Z M 118.47266,2.2324219 c -0.85067,0 -1.50866,0.115656 -1.97266,0.3476562 -0.30933,0.1546668 -0.52736,0.4391178 -0.65625,0.8515625 -0.12889,0.386667 -0.19336,0.9137616 -0.19336,1.5839844 0,0.6702227 0.0645,1.2125552 0.19336,1.625 0.12889,0.4124448 0.38677,0.721512 0.77344,0.9277344 0.38666,0.1804446 0.99151,0.2695312 1.8164,0.2695312 h 7.42383 V 27.25 c 0,0.592889 0.0133,1.044182 0.0391,1.353516 0.0516,0.283556 0.16721,0.617239 0.34766,1.003906 0.20622,0.360889 0.54185,0.618771 1.00586,0.773437 0.48977,0.154668 1.13448,0.232422 1.93359,0.232422 0.79912,0 1.44382,-0.07775 1.9336,-0.232422 0.48978,-0.154666 0.82346,-0.412548 1.0039,-0.773437 0.2062,-0.386667 0.32381,-0.72035 0.34961,-1.003906 0.0515,-0.283556 0.0762,-0.723517 0.0762,-1.316407 V 7.8378906 h 7.38476 c 0.85067,0 1.50866,-0.115656 1.97266,-0.3476562 0.30933,-0.1546668 0.52931,-0.425833 0.6582,-0.8125 0.12889,-0.4124448 0.19336,-0.9528242 0.19336,-1.6230469 0,-0.6702228 -0.0645,-1.2106021 -0.19336,-1.6230469 -0.12889,-0.4124447 -0.38677,-0.7101804 -0.77344,-0.890625 -0.38666,-0.2062224 -0.99347,-0.3085937 -1.81836,-0.3085937 z m -23.033207,0.039063 c -1.366223,0 -2.293425,0.2445968 -2.783203,0.734375 -0.489778,0.4640004 -0.734375,1.353301 -0.734375,2.6679687 V 27.171875 c 0,0.902223 0.0758,1.560212 0.230469,1.972656 0.309333,0.979557 1.367429,1.46875 3.171875,1.46875 h 15.312501 c 0.90222,0 1.57154,-0.07775 2.00976,-0.232422 0.95378,-0.309333 1.43165,-1.365476 1.43164,-3.169921 2e-5,-1.64978 -0.34891,-2.654736 -1.04492,-3.015626 -0.38666,-0.206219 -0.73559,-0.321876 -1.04492,-0.347656 -0.28355,-0.05155 -0.72157,-0.07813 -1.31445,-0.07813 H 98.765625 v -3.90625 h 7.578125 c 0.90222,0 1.5735,-0.0758 2.01172,-0.230469 0.97956,-0.309332 1.46875,-1.367429 1.46875,-3.171874 0,-1.64978 -0.34892,-2.654735 -1.04492,-3.015626 -0.38667,-0.20622 -0.73364,-0.321876 -1.04297,-0.347656 -0.28356,-0.05155 -0.72158,-0.07813 -1.31445,-0.07813 H 98.765625 V 9.1152344 h 11.871095 c 0.90222,0 1.57154,-0.077755 2.00976,-0.2324219 0.95378,-0.3093336 1.43165,-1.3654759 1.43164,-3.1699219 2e-5,-1.6497791 -0.34891,-2.656689 -1.04492,-3.0175781 -0.38666,-0.2062222 -0.73559,-0.3218783 -1.04492,-0.3476563 -0.28355,-0.051555 -0.72157,-0.076172 -1.31445,-0.076172 z m -33.683594,0.037109 c -1.624001,-1e-7 -2.628958,0.3356366 -3.015625,1.0058593 -0.206224,0.386667 -0.335165,0.7355883 -0.386718,1.0449219 -0.02578,0.2835558 -0.03906,0.7215638 -0.03906,1.3144531 V 27.132812 c 0,0.618667 0.01328,1.083245 0.03906,1.392579 0.05156,0.309333 0.180496,0.64497 0.386718,1.005859 0.386667,0.696001 1.365054,1.042969 2.9375,1.042969 1.624002,0 2.630912,-0.346968 3.017578,-1.042969 0.206221,-0.360889 0.321877,-0.683242 0.347657,-0.966797 0.05155,-0.309334 0.07617,-0.760627 0.07617,-1.353515 v -13.03125 c 0.128889,0.154666 0.953719,1.288564 2.474609,3.402343 1.52089,2.088002 2.539131,3.455165 3.054688,4.09961 l 0.310546,0.425781 c 0.206222,0.257778 0.539906,0.526991 1.003907,0.810547 0.489778,0.257778 1.018826,0.386718 1.585937,0.386719 0.59289,-2e-6 1.135222,-0.140273 1.625,-0.423829 0.515556,-0.309334 0.837908,-0.542599 0.966797,-0.697265 0.128889,-0.180445 0.360201,-0.489513 0.695313,-0.927735 0.33511,-0.438222 1.12204,-1.520933 2.359374,-3.248047 1.237336,-1.75289 2.177821,-3.029014 2.822266,-3.828124 v 12.953124 c 0,0.902223 0.06447,1.573497 0.19336,2.011719 0.128888,0.335112 0.309014,0.592993 0.541015,0.773438 0.232,0.180444 0.567637,0.334002 1.005859,0.46289 0.438223,0.12889 1.029788,0.19336 1.777344,0.19336 0.747556,0 1.367643,-0.07775 1.857422,-0.232422 0.979556,-0.309334 1.46875,-1.352192 1.46875,-3.130859 V 5.75 c 0,-0.5928893 -0.02657,-1.044182 -0.07813,-1.3535156 C 88.757432,4.0871508 88.64177,3.7401826 88.435547,3.3535156 88.074658,2.6575151 87.069701,2.3085938 85.419922,2.3085938 c -1.624001,0 -2.655527,0.3489213 -3.09375,1.0449218 -1.469335,1.8560016 -4.395118,5.6843696 -8.777344,11.4843754 L 64.771484,3.3144531 64.539062,3.0820312 C 64.384396,2.9015868 64.050712,2.7347449 63.535156,2.5800781 63.045378,2.3996335 62.45186,2.3085937 61.755859,2.3085938 Z"
     style="font-size:38.6667px;fill:#ef5350;fill-opacity:1"
     id="path21" /></g></svg>
