<?xml version="1.0" encoding="UTF-8" standalone="no"?>
<svg
   xmlns:dc="http://purl.org/dc/elements/1.1/"
   xmlns:cc="http://creativecommons.org/ns#"
   xmlns:rdf="http://www.w3.org/1999/02/22-rdf-syntax-ns#"
   xmlns:svg="http://www.w3.org/2000/svg"
   xmlns="http://www.w3.org/2000/svg"
   xmlns:sodipodi="http://sodipodi.sourceforge.net/DTD/sodipodi-0.dtd"
   xmlns:inkscape="http://www.inkscape.org/namespaces/inkscape"
   sodipodi:docname="c tail.svg"
   inkscape:version="1.0 (4035a4fb49, 2020-05-01)"
   id="svg1526"
   version="1.1"
   viewBox="0 0 58.195839 11.08"
   height="11.08mm"
   width="58.195839mm">
  <defs
     id="defs1520" />
  <sodipodi:namedview
     inkscape:window-maximized="1"
     inkscape:window-y="-8"
     inkscape:window-x="-8"
     inkscape:window-height="1017"
     inkscape:window-width="1920"
     fit-margin-right="3"
     fit-margin-bottom="3"
     fit-margin-left="3"
     fit-margin-top="3"
     showgrid="false"
     inkscape:document-rotation="0"
     inkscape:current-layer="text1530"
     inkscape:document-units="mm"
     inkscape:cy="48.742337"
     inkscape:cx="145.64961"
     inkscape:zoom="1.979899"
     inkscape:pageshadow="2"
     inkscape:pageopacity="0.0"
     borderopacity="1.0"
     bordercolor="#666666"
     pagecolor="#ffffff"
     id="base" />
  <metadata
     id="metadata1523">
    <rdf:RDF>
      <cc:Work
         rdf:about="">
        <dc:format>image/svg+xml</dc:format>
        <dc:type
           rdf:resource="http://purl.org/dc/dcmitype/StillImage" />
        <dc:title></dc:title>
      </cc:Work>
    </rdf:RDF>
  </metadata>
  <g
     transform="translate(-74.916122,-155.18178)"
     id="layer1"
     inkscape:groupmode="layer"
     inkscape:label="Layer 1">
    <g
       style="font-size:7.05556px;line-height:1.25;font-family:'Lexend Peta';-inkscape-font-specification:'Lexend Peta';stroke-width:0.264583"
       id="text1530"
       aria-label="COMETX.io">
      <path
         sodipodi:nodetypes="cccscccscscscccccscccsccscscc"
         id="path1534"
         style="stroke-width:0.264583"
         d="m 92.21082,162.49272 c -0.122296,0.11289 -0.289277,0.22814 -0.500944,0.34573 -0.211667,0.11759 -0.453908,0.21871 -0.726723,0.30338 -0.272815,0.08 -0.564444,0.11995 -0.874889,0.11995 -0.381001,0 -0.736131,-0.0588 -1.06539,-0.17639 -0.329259,-0.12229 -0.618537,-0.29398 -0.867834,-0.51506 -0.244593,-0.22107 -0.435093,-0.48683 -0.5715,-0.79727 -0.136408,-0.31515 -0.204612,-0.66558 -0.204612,-1.05128 0,-0.36219 0.07056,-0.69615 0.211667,-1.00189 0.145815,-0.30574 0.345723,-0.5715 0.599723,-0.79728 0.254,-0.22578 0.54563,-0.39982 0.874889,-0.52211 0.32926,-0.127 0.677334,-0.1905 1.044223,-0.1905 0.301037,0 0.590315,0.0423 0.867834,0.127 0.277519,0.08 0.524463,0.18344 0.740834,0.31044 0.221074,0.127 0.397463,0.2587 0.529167,0.39511 l -0.472723,0.61384 c -0.230481,-0.20226 -0.486833,-0.36689 -0.769056,-0.49389 -0.282222,-0.13171 -0.599722,-0.19756 -0.9525,-0.19756 -0.239889,0 -0.472723,0.04 -0.698501,0.11995 -0.225778,0.08 -0.430389,0.19755 -0.613833,0.35278 -0.178741,0.15051 -0.322205,0.33396 -0.43039,0.55033 -0.103481,0.21637 -0.155222,0.46096 -0.155222,0.73378 0,0.39511 0.09407,0.72672 0.282223,0.99483 0.188148,0.26341 0.435092,0.46331 0.740833,0.59972 0.310445,0.13171 0.639704,0.19756 0.987779,0.19756 0.254,0 0.48213,-0.0329 0.684389,-0.0988 0.202259,-0.0705 0.383352,-0.15522 0.543278,-0.254 0.159926,-0.0988 0.303389,-0.19756 0.430389,-0.29633 z" />
      <path
         id="path1536"
         style="stroke-width:0.264583"
         d="m 99.375632,160.72178 q 0,0.53622 -0.211667,1.00189 -0.204611,0.45861 -0.585612,0.80433 -0.381,0.34572 -0.896056,0.54328 -0.515056,0.1905 -1.135945,0.1905 -0.620889,0 -1.143001,-0.1905 -0.515055,-0.19756 -0.896056,-0.54328 -0.373944,-0.34572 -0.578556,-0.80433 -0.204611,-0.46567 -0.204611,-1.00189 0,-0.53623 0.204611,-0.99484 0.204612,-0.46566 0.578556,-0.81139 0.381001,-0.34572 0.896056,-0.53622 0.522112,-0.19755 1.143001,-0.19755 0.620889,0 1.135945,0.19755 0.515056,0.1905 0.896056,0.53622 0.381001,0.34573 0.585612,0.81139 0.211667,0.45861 0.211667,0.99484 z m -0.776112,0 q 0,-0.51506 -0.268111,-0.91723 -0.261056,-0.40922 -0.726723,-0.64205 -0.458611,-0.23989 -1.058334,-0.23989 -0.606778,0 -1.072445,0.23989 -0.458611,0.23283 -0.719667,0.64205 -0.254,0.40217 -0.254,0.91723 0,0.51505 0.254,0.92428 0.261056,0.40216 0.719667,0.64205 0.465667,0.23283 1.072445,0.23283 0.599723,0 1.058334,-0.23283 0.465667,-0.23989 0.726723,-0.64911 0.268111,-0.40922 0.268111,-0.91722 z" />
      <path
         id="path1538"
         style="stroke-width:0.264583"
         d="m 101.97715,158.25233 1.98261,2.63172 1.98261,-2.63172 h 0.73378 v 4.93889 h -0.762 v -2.07433 q 0,-0.45861 0.0141,-0.86784 0.0212,-0.40922 0.0635,-0.81844 l -1.80622,2.34245 h -0.46567 l -1.80622,-2.33539 q 0.0494,0.40216 0.0635,0.81138 0.0141,0.40923 0.0141,0.86784 v 2.07433 h -0.762 v -4.93889 z" />
      <path
         id="path1540"
         style="stroke-width:0.264583"
         d="m 108.91872,158.25233 h 3.82411 v 0.73378 h -3.06211 v 1.30528 h 2.67406 v 0.73378 h -2.67406 v 1.43227 h 3.06211 v 0.73378 h -3.82411 z" />
      <path
         id="path1542"
         style="stroke-width:0.264583"
         d="m 116.01617,163.19122 v -4.20511 h -1.73567 v -0.73378 h 4.28273 v 0.73378 h -1.78506 v 4.20511 z" />
      <path
         id="path1544"
         style="stroke-width:0.264583"
         d="m 119.64648,163.19122 2.08844,-2.53294 -2.05317,-2.40595 h 1.016 l 1.61573,1.95439 1.49578,-1.95439 h 0.97366 l -2.02494,2.48356 2.0955,2.45533 h -1.016 l -1.64395,-1.98261 -1.58044,1.98261 z" />
      <path
         id="path1546"
         style="font-size:2.82222px"
         d="m 126.02022,163.22227 q -0.13546,0 -0.20037,-0.0565 -0.0649,-0.0593 -0.0649,-0.15522 0,-0.0818 0.0649,-0.14675 0.0649,-0.0649 0.20037,-0.0649 0.13547,0 0.20038,0.0593 0.0649,0.0564 0.0649,0.1524 0,0.079 -0.0649,0.14676 -0.0649,0.0649 -0.20038,0.0649 z" />
      <path
         id="path1548"
         style="font-size:2.82222px"
         d="m 127.32969,161.38782 q -0.1016,0 -0.14958,-0.0508 -0.0451,-0.0508 -0.0451,-0.13264 0,-0.0706 0.0451,-0.127 0.048,-0.0564 0.14958,-0.0564 0.0988,0 0.14676,0.0508 0.048,0.0508 0.048,0.13264 0,0.0706 -0.048,0.127 -0.048,0.0564 -0.14676,0.0564 z m 0.14394,1.8034 h -0.29069 v -1.48166 h 0.29069 z" />
      <path
         id="path1550"
         style="font-size:2.82222px"
         d="m 130.11196,162.44898 q 0,0.22578 -0.11853,0.40075 -0.11572,0.17216 -0.32456,0.27094 -0.20602,0.0988 -0.47413,0.0988 -0.26811,0 -0.47696,-0.0988 -0.20602,-0.0988 -0.32455,-0.27094 -0.11571,-0.17497 -0.11571,-0.40075 0,-0.22578 0.11571,-0.39793 0.11853,-0.17498 0.32455,-0.27376 0.20885,-0.0988 0.47696,-0.0988 0.26811,0 0.47413,0.0988 0.20884,0.0988 0.32456,0.27376 0.11853,0.17215 0.11853,0.39793 z m -0.29633,0 q 0.003,-0.14958 -0.079,-0.26247 -0.0818,-0.11571 -0.22295,-0.1778 -0.14111,-0.0649 -0.31891,-0.0649 -0.17498,0 -0.31891,0.0649 -0.14112,0.0621 -0.22578,0.1778 -0.0819,0.11289 -0.0762,0.26247 -0.006,0.14675 0.0762,0.26247 0.0847,0.11288 0.22578,0.1778 0.14393,0.0649 0.31891,0.0649 0.1778,0 0.31891,-0.0649 0.14111,-0.0649 0.22295,-0.1778 0.0819,-0.11572 0.079,-0.26247 z" />
      <path
         transform="matrix(-0.30399825,0,0,0.10370214,111.44162,143.02436)"
         sodipodi:nodetypes="ccccc"
         d="m 110.28188,170.65625 -36.60137,22.79231 4.498779,-24.74974 -4.638033,-20.42666 z"
         inkscape:transform-center-y="1.9473678e-06"
         inkscape:transform-center-x="1.6666664"
         style="fill:#000000;fill-opacity:1;fill-rule:evenodd;stroke-width:0.236538;stroke-linecap:round;stroke-linejoin:round"
         id="path1553" />
      <text
         id="text2141"
         y="135.52702"
         x="59.041122"
         style="font-style:normal;font-variant:normal;font-weight:normal;font-stretch:normal;font-size:7.05556px;line-height:1.25;font-family:'Lucida Console';-inkscape-font-specification:'Lucida Console';stroke-width:0.0700042"
         xml:space="preserve"><tspan
           style="font-style:normal;font-variant:normal;font-weight:normal;font-stretch:normal;font-family:'Lucida Console';-inkscape-font-specification:'Lucida Console';stroke-width:0.0700042"
           y="135.52702"
           x="59.041122"
           id="tspan2139"
           sodipodi:role="line" /></text>
    </g>
  </g>
</svg>
