<svg width="7.0344mm" height="7.0344mm" version="1.1" viewBox="0 0 7.0344 7.0344" xmlns="http://www.w3.org/2000/svg">
 <g transform="translate(-7.5432 -2.0088)" fill-rule="evenodd">
  <path transform="translate(-53.688,-60.81)" d="m65.784 63.81a2.4814 2.526 0 0 0-1.5932 0.58976 1.9313 1.966 0 0 1 1.5994 1.9362 1.9313 1.966 0 0 1-1.599 1.9366 2.4814 2.526 0 0 0 1.5929 0.58939 2.4814 2.526 0 0 0 2.4815-2.526 2.4814 2.526 0 0 0-2.4815-2.526z"/>
  <path d="m11.512 5.526c0 0.53421-0.41514 1.1211-0.88122 0.96727-2.9314-0.96727-3.3975-0.81348-2.9314-0.96727l2.9314-0.96727c0.46608-0.15379 0.88122 0.43306 0.88122 0.96727z"/>
 </g>
</svg>
