<?xml version="1.0" encoding="UTF-8" standalone="no"?>
<svg
   xmlns:dc="http://purl.org/dc/elements/1.1/"
   xmlns:cc="http://creativecommons.org/ns#"
   xmlns:rdf="http://www.w3.org/1999/02/22-rdf-syntax-ns#"
   xmlns:svg="http://www.w3.org/2000/svg"
   xmlns="http://www.w3.org/2000/svg"
   xmlns:sodipodi="http://sodipodi.sourceforge.net/DTD/sodipodi-0.dtd"
   xmlns:inkscape="http://www.inkscape.org/namespaces/inkscape"
   width="47.6106mm"
   height="11.051781mm"
   viewBox="0 0 47.6106 11.051781"
   version="1.1"
   id="svg53"
   inkscape:version="1.0 (4035a4fb49, 2020-05-01)"
   sodipodi:docname="newlogo_nofont.svg"
   inkscape:export-filename="C:\Users\Dan\Desktop\new logo.png"
   inkscape:export-xdpi="2184.8501"
   inkscape:export-ydpi="2184.8501">
  <defs
     id="defs47" />
  <sodipodi:namedview
     id="base"
     pagecolor="#ffffff"
     bordercolor="#666666"
     borderopacity="1.0"
     inkscape:pageopacity="0.0"
     inkscape:pageshadow="2"
     inkscape:zoom="2.8"
     inkscape:cx="65.97754"
     inkscape:cy="17.996037"
     inkscape:document-units="mm"
     inkscape:current-layer="layer1"
     inkscape:document-rotation="0"
     showgrid="false"
     fit-margin-top="3"
     fit-margin-left="3"
     fit-margin-right="3"
     fit-margin-bottom="3"
     inkscape:window-width="1920"
     inkscape:window-height="1017"
     inkscape:window-x="-8"
     inkscape:window-y="-8"
     inkscape:window-maximized="1" />
  <metadata
     id="metadata50">
    <rdf:RDF>
      <cc:Work
         rdf:about="">
        <dc:format>image/svg+xml</dc:format>
        <dc:type
           rdf:resource="http://purl.org/dc/dcmitype/StillImage" />
        <dc:title></dc:title>
      </cc:Work>
    </rdf:RDF>
  </metadata>
  <g
     inkscape:label="Layer 1"
     inkscape:groupmode="layer"
     id="layer1"
     transform="translate(-53.688365,-60.810439)">
    <g
       style="font-size:7.05556px;line-height:1.25;font-family:'Lexend Peta';-inkscape-font-specification:'Lexend Peta';stroke-width:0.264583"
       id="text57"
       aria-label="C  METX.io">
      <path
         id="path12"
         style="stroke-width:0.264583"
         d="m 61.500257,68.093164 q -0.183445,0.169333 -0.500945,0.345722 -0.3175,0.176389 -0.726723,0.303389 -0.409222,0.119945 -0.874889,0.119945 -0.5715,0 -1.06539,-0.176389 -0.493889,-0.183445 -0.867834,-0.515056 -0.366889,-0.331611 -0.5715,-0.797278 -0.204611,-0.472723 -0.204611,-1.051279 0,-0.543278 0.211667,-1.001889 0.218722,-0.458612 0.599722,-0.797279 0.381,-0.338667 0.87489,-0.522111 0.493889,-0.1905 1.044223,-0.1905 0.451555,0 0.867833,0.127 0.416279,0.119944 0.740834,0.310444 0.331612,0.190501 0.529167,0.395112 l -0.472722,0.613834 q -0.345723,-0.30339 -0.769056,-0.49389 -0.423334,-0.197555 -0.952501,-0.197555 -0.359833,0 -0.6985,0.119944 -0.338667,0.119945 -0.613834,0.352778 -0.268111,0.225778 -0.430389,0.550334 -0.155223,0.324556 -0.155223,0.733778 0,0.592667 0.282223,0.994834 0.282222,0.395111 0.740834,0.599723 0.465667,0.197555 0.987778,0.197555 0.381,0 0.684389,-0.09878 0.303389,-0.105834 0.543279,-0.254001 0.239889,-0.148166 0.430389,-0.296333 z" />
      <path
         id="path14"
         style="stroke-width:0.264583"
         d="m 70.164155,63.852772 1.982612,2.631724 1.982613,-2.631724 h 0.733778 v 4.938892 h -0.762001 v -2.074335 q 0,-0.458611 0.01411,-0.867833 0.02117,-0.409223 0.0635,-0.818445 l -1.806224,2.342446 h -0.465667 l -1.806223,-2.335391 q 0.04939,0.402167 0.0635,0.81139 0.01411,0.409222 0.01411,0.867833 v 2.074335 h -0.762001 v -4.938892 z" />
      <path
         id="path16"
         style="stroke-width:0.264583"
         d="m 77.105722,63.852772 h 3.824114 v 0.733778 h -3.062113 v 1.305279 h 2.674057 v 0.733778 h -2.674057 v 1.432279 h 3.062113 v 0.733778 h -3.824114 z" />
      <path
         id="path18"
         style="stroke-width:0.264583"
         d="M 84.203176,68.791664 V 64.58655 h -1.735668 v -0.733778 h 4.282725 v 0.733778 h -1.785057 v 4.205114 z" />
      <path
         id="path20"
         style="stroke-width:0.264583"
         d="m 87.833482,68.791664 2.088446,-2.532946 -2.053168,-2.405946 h 1.016 l 1.615724,1.95439 1.495778,-1.95439 h 0.973668 l -2.024946,2.483557 2.095501,2.455335 h -1.016 l -1.643946,-1.982612 -1.580445,1.982612 z" />
      <path
         id="path22"
         style="font-size:2.82222px"
         d="m 94.207232,68.822709 q -0.135467,0 -0.200378,-0.05644 -0.06491,-0.05927 -0.06491,-0.155222 0,-0.08184 0.06491,-0.146755 0.06491,-0.06491 0.200378,-0.06491 0.135467,0 0.200378,0.05927 0.06491,0.05644 0.06491,0.1524 0,0.07902 -0.06491,0.146755 -0.06491,0.06491 -0.200378,0.06491 z" />
      <path
         id="path24"
         style="font-size:2.82222px"
         d="m 95.516696,66.988265 q -0.1016,0 -0.149578,-0.0508 -0.04516,-0.0508 -0.04516,-0.132645 0,-0.07055 0.04516,-0.127 0.04798,-0.05644 0.149578,-0.05644 0.09878,0 0.146755,0.0508 0.04798,0.0508 0.04798,0.132644 0,0.07056 -0.04798,0.127 -0.04798,0.05644 -0.146755,0.05644 z m 0.143933,1.803399 h -0.290688 v -1.481665 h 0.290688 z" />
      <path
         id="path26"
         style="font-size:2.82222px"
         d="m 98.298966,68.04942 q 0,0.225778 -0.118533,0.400755 -0.115711,0.172156 -0.324555,0.270934 -0.206022,0.09878 -0.474133,0.09878 -0.268111,0 -0.476956,-0.09878 -0.206022,-0.09878 -0.324555,-0.270934 -0.115711,-0.174977 -0.115711,-0.400755 0,-0.225777 0.115711,-0.397933 0.118533,-0.174977 0.324555,-0.273755 0.208845,-0.09878 0.476956,-0.09878 0.268111,0 0.474133,0.09878 0.208844,0.09878 0.324555,0.273755 0.118533,0.172156 0.118533,0.397933 z m -0.296333,0 q 0.0028,-0.149577 -0.07902,-0.262466 -0.08184,-0.115711 -0.222955,-0.1778 -0.141111,-0.06491 -0.318911,-0.06491 -0.174978,0 -0.318911,0.06491 -0.141111,0.06209 -0.225778,0.1778 -0.08184,0.112889 -0.0762,0.262466 -0.0056,0.146756 0.0762,0.262467 0.08467,0.112889 0.225778,0.1778 0.143933,0.06491 0.318911,0.06491 0.1778,0 0.318911,-0.06491 0.141111,-0.06491 0.222955,-0.1778 0.08184,-0.115711 0.07902,-0.262467 z" />
    </g>
    <path
       id="path61"
       style="fill:#000000;fill-opacity:1;fill-rule:evenodd;stroke:none;stroke-width:0.176742;stroke-linecap:round;stroke-linejoin:round;stroke-miterlimit:4;stroke-dasharray:none"
       d="m 65.518876,63.810329 a 2.4814283,2.5259535 0 0 0 -1.593241,0.589756 1.9313004,1.9659544 0 0 1 1.599397,1.936244 1.9313004,1.9659544 0 0 1 -1.599035,1.936612 2.4814283,2.5259535 0 0 0 1.592879,0.589388 2.4814283,2.5259535 0 0 0 2.481474,-2.526 2.4814283,2.5259535 0 0 0 -2.481474,-2.526 z" />
    <circle
       style="fill:#000000;fill-opacity:1;fill-rule:evenodd;stroke:none;stroke-width:0.175177;stroke-linecap:round;stroke-linejoin:round;stroke-miterlimit:4;stroke-dasharray:none"
       id="path914"
       cx="63.755398"
       cy="66.336327"
       r="1.0428491" />
  </g>
</svg>
