<?xml version="1.0" encoding="UTF-8" standalone="no"?>
<svg
   xmlns:dc="http://purl.org/dc/elements/1.1/"
   xmlns:cc="http://creativecommons.org/ns#"
   xmlns:rdf="http://www.w3.org/1999/02/22-rdf-syntax-ns#"
   xmlns:svg="http://www.w3.org/2000/svg"
   xmlns="http://www.w3.org/2000/svg"
   xmlns:sodipodi="http://sodipodi.sourceforge.net/DTD/sodipodi-0.dtd"
   xmlns:inkscape="http://www.inkscape.org/namespaces/inkscape"
   inkscape:version="1.0 (4035a4fb49, 2020-05-01)"
   sodipodi:docname="YAY.svg"
   id="svg28"
   viewBox="0 0 47.611 11.052"
   version="1.1"
   height="11.052mm"
   width="47.611mm">
  <metadata
     id="metadata34">
    <rdf:RDF>
      <cc:Work
         rdf:about="">
        <dc:format>image/svg+xml</dc:format>
        <dc:type
           rdf:resource="http://purl.org/dc/dcmitype/StillImage" />
        <dc:title></dc:title>
      </cc:Work>
    </rdf:RDF>
  </metadata>
  <defs
     id="defs32" />
  <sodipodi:namedview
     inkscape:current-layer="svg28"
     inkscape:window-maximized="1"
     inkscape:window-y="-8"
     inkscape:window-x="-8"
     inkscape:cy="281.9256"
     inkscape:cx="381.52054"
     inkscape:zoom="1.0305182"
     showgrid="false"
     id="namedview30"
     inkscape:window-height="1017"
     inkscape:window-width="1920"
     inkscape:pageshadow="2"
     inkscape:pageopacity="0"
     guidetolerance="10"
     gridtolerance="10"
     objecttolerance="10"
     borderopacity="1"
     bordercolor="#666666"
     pagecolor="#ffffff" />
  <g
     id="g26"
     transform="translate(-53.688 -60.81)">
    <g
       id="g20"
       aria-label="C  METX.io"
       stroke-width=".26458">
      <g
         id="g12"
         stroke-width=".26458">
        <path
           id="path2"
           d="m 61.235417,68.09286 q -0.18344,0.16933 -0.50094,0.34572 -0.3175,0.17639 -0.72672,0.30339 -0.40922,0.11994 -0.87489,0.11994 -0.5715,0 -1.0654,-0.17639 -0.49389,-0.18344 -0.86783,-0.51506 -0.36689,-0.33161 -0.5715,-0.79728 -0.20461,-0.47272 -0.20461,-1.0513 0,-0.54328 0.21167,-1.0019 0.21872,-0.45861 0.59972,-0.79728 0.381,-0.33867 0.87489,-0.52211 0.49389,-0.1905 1.0442,-0.1905 0.45156,0 0.86783,0.127 0.41628,0.11994 0.74083,0.31044 0.33161,0.1905 0.52917,0.39511 l -0.47272,0.61383 q -0.34572,-0.30339 -0.76906,-0.49389 -0.42333,-0.19756 -0.9525,-0.19756 -0.35983,0 -0.6985,0.11994 -0.33867,0.11994 -0.61383,0.35278 -0.26811,0.22578 -0.43039,0.55033 -0.15522,0.32456 -0.15522,0.73378 0,0.59267 0.28222,0.99483 0.28222,0.39511 0.74083,0.59972 0.46567,0.19756 0.98778,0.19756 0.381,0 0.68439,-0.09878 0.30339,-0.10583 0.54328,-0.254 0.23989,-0.14817 0.43039,-0.29633 z" />
        <path
           id="path4"
           d="m70.164 63.853 1.9826 2.6317 1.9826-2.6317h0.73378v4.9389h-0.762v-2.0743q0-0.45861 0.01411-0.86783 0.02117-0.40922 0.0635-0.81844l-1.8062 2.3424h-0.46567l-1.8062-2.3354q0.04939 0.40217 0.0635 0.81139 0.01411 0.40922 0.01411 0.86783v2.0743h-0.762v-4.9389z" />
        <path
           id="path6"
           d="m77.106 63.853h3.8241v0.73378h-3.0621v1.3053h2.6741v0.73378h-2.6741v1.4323h3.0621v0.73378h-3.8241z" />
        <path
           id="path8"
           d="m84.203 68.792v-4.2051h-1.7357v-0.73378h4.2827v0.73378h-1.7851v4.2051z" />
        <path
           id="path10"
           d="m87.833 68.792 2.0884-2.5329-2.0532-2.4059h1.016l1.6157 1.9544 1.4958-1.9544h0.97367l-2.0249 2.4836 2.0955 2.4553h-1.016l-1.6439-1.9826-1.5804 1.9826z" />
      </g>
      <path
         id="path14"
         d="m94.207 68.823q-0.13547 0-0.20038-0.05644-0.06491-0.05927-0.06491-0.15522 0-0.08184 0.06491-0.14676 0.06491-0.06491 0.20038-0.06491 0.13547 0 0.20038 0.05927 0.06491 0.05644 0.06491 0.1524 0 0.07902-0.06491 0.14676-0.06491 0.06491-0.20038 0.06491z" />
      <path
         id="path16"
         d="m95.517 66.988q-0.1016 0-0.14958-0.0508-0.04516-0.0508-0.04516-0.13264 0-0.07055 0.04516-0.127 0.04798-0.05644 0.14958-0.05644 0.09878 0 0.14676 0.0508 0.04798 0.0508 0.04798 0.13264 0 0.07056-0.04798 0.127t-0.14676 0.05644zm0.14393 1.8034h-0.29069v-1.4817h0.29069z" />
      <path
         id="path18"
         d="m98.299 68.049q0 0.22578-0.11853 0.40076-0.11571 0.17216-0.32456 0.27093-0.20602 0.09878-0.47413 0.09878t-0.47696-0.09878q-0.20602-0.09878-0.32456-0.27093-0.11571-0.17498-0.11571-0.40076 0-0.22578 0.11571-0.39793 0.11853-0.17498 0.32456-0.27376 0.20884-0.09878 0.47696-0.09878t0.47413 0.09878q0.20884 0.09878 0.32456 0.27376 0.11853 0.17216 0.11853 0.39793zm-0.29633 0q0.0028-0.14958-0.07902-0.26247-0.08184-0.11571-0.22296-0.1778-0.14111-0.06491-0.31891-0.06491-0.17498 0-0.31891 0.06491-0.14111 0.06209-0.22578 0.1778-0.08184 0.11289-0.0762 0.26247-0.0056 0.14676 0.0762 0.26247 0.08467 0.11289 0.22578 0.1778 0.14393 0.06491 0.31891 0.06491 0.1778 0 0.31891-0.06491t0.22296-0.1778q0.08184-0.11571 0.07902-0.26247z" />
    </g>
    <path
       id="path22"
       fill-rule="evenodd"
       d="m 65.783571,63.81 a 2.4814,2.526 0 0 0 -1.5932,0.58976 1.9313,1.966 0 0 1 1.5994,1.9362 1.9313,1.966 0 0 1 -1.599,1.9366 2.4814,2.526 0 0 0 1.5929,0.58939 2.4814,2.526 0 0 0 2.4815,-2.526 2.4814,2.526 0 0 0 -2.4815,-2.526 z" />
  </g>
  <path
     sodipodi:nodetypes="sssss"
     d="m 11.512286,5.5259996 c 0,0.5342063 -0.415139,1.1210571 -0.881218,0.967266 C 7.6996711,5.5259996 7.233592,5.6797904 7.6996711,5.5259996 L 10.631068,4.5587343 c 0.466079,-0.1537907 0.881218,0.4330592 0.881218,0.9672653 z"
     style="fill:#000000;fill-opacity:1;fill-rule:evenodd;stroke:none;stroke-width:0.098194;stroke-linecap:round;stroke-linejoin:round;stroke-miterlimit:4;stroke-dasharray:none"
     id="path863" />
</svg>
